<?xml version="1.0" encoding="UTF-8"?>
<!DOCTYPE svg PUBLIC "-//W3C//DTD SVG 1.1//EN" "http://www.w3.org/Graphics/SVG/1.1/DTD/svg11.dtd">
<!-- Creator: CorelDRAW -->
<svg xmlns="http://www.w3.org/2000/svg" xml:space="preserve" width="146px" height="150px" version="1.1" style="shape-rendering:geometricPrecision; text-rendering:geometricPrecision; image-rendering:optimizeQuality; fill-rule:evenodd; clip-rule:evenodd"
viewBox="0 0 62.44 64.36"
 xmlns:xlink="http://www.w3.org/1999/xlink"
 xmlns:xodm="http://www.corel.com/coreldraw/odm/2003">
 <defs>
  <style type="text/css">
   <![CDATA[
    .fil3 {fill:#001C4A;fill-rule:nonzero}
    .fil0 {fill:#001C4A;fill-rule:nonzero}
    .fil2 {fill:#55BD00;fill-rule:nonzero}
    .fil1 {fill:#55BD00;fill-rule:nonzero}
   ]]>
  </style>
 </defs>
 <g id="Layer_x0020_1">
  <metadata id="CorelCorpID_0Corel-Layer"/>
  <g id="_1802184255056">
   <g>
    <path class="fil0" d="M1.34 55.4c0,0.26 -0.06,0.46 -0.16,0.6 -0.12,0.14 -0.28,0.2 -0.5,0.2 -0.22,0 -0.4,-0.06 -0.5,-0.2 -0.12,-0.14 -0.18,-0.34 -0.18,-0.6l0 -12.21c0,-0.26 0.06,-0.44 0.18,-0.58 0.1,-0.14 0.28,-0.2 0.5,-0.2 0.22,0 0.38,0.06 0.5,0.2 0.1,0.12 0.16,0.32 0.16,0.58l0 12.21zm4.13 -0.02c0,0.26 -0.06,0.46 -0.16,0.58 -0.1,0.14 -0.26,0.2 -0.46,0.2 -0.2,0 -0.36,-0.06 -0.48,-0.2 -0.1,-0.14 -0.16,-0.32 -0.16,-0.58l0 -8.64c0,-0.26 0.06,-0.46 0.18,-0.6 0.1,-0.14 0.26,-0.21 0.46,-0.21 0.2,0 0.36,0.07 0.46,0.21 0.1,0.14 0.16,0.34 0.16,0.6l0 0.72c0.45,-0.56 0.93,-0.96 1.45,-1.22 0.52,-0.26 1.12,-0.39 1.8,-0.39 1.19,0 2.07,0.35 2.69,1.03 0.62,0.66 0.92,1.66 0.92,2.95l0 5.55c0,0.26 -0.06,0.46 -0.16,0.58 -0.1,0.14 -0.26,0.2 -0.46,0.2 -0.2,0 -0.36,-0.06 -0.46,-0.2 -0.1,-0.12 -0.16,-0.32 -0.16,-0.58l0 -4.99c0,-1.25 -0.2,-2.13 -0.6,-2.65 -0.4,-0.5 -1.07,-0.76 -1.99,-0.76 -1.02,0 -1.78,0.36 -2.28,1.06 -0.49,0.72 -0.75,1.83 -0.75,3.29l0 4.05zm10.87 0c0,0.26 -0.06,0.46 -0.16,0.58 -0.1,0.14 -0.26,0.2 -0.46,0.2 -0.2,0 -0.36,-0.06 -0.48,-0.2 -0.1,-0.14 -0.16,-0.32 -0.16,-0.58l0 -8.64c0,-0.26 0.06,-0.46 0.18,-0.6 0.1,-0.14 0.26,-0.21 0.46,-0.21 0.2,0 0.36,0.07 0.46,0.21 0.1,0.14 0.16,0.34 0.16,0.6l0 0.72c0.44,-0.56 0.92,-0.96 1.45,-1.22 0.52,-0.26 1.12,-0.39 1.8,-0.39 1.18,0 2.07,0.35 2.69,1.03 0.62,0.66 0.92,1.66 0.92,2.95l0 5.55c0,0.26 -0.06,0.46 -0.16,0.58 -0.1,0.14 -0.26,0.2 -0.46,0.2 -0.2,0 -0.36,-0.06 -0.46,-0.2 -0.1,-0.12 -0.16,-0.32 -0.16,-0.58l0 -4.99c0,-1.25 -0.2,-2.13 -0.6,-2.65 -0.41,-0.5 -1.07,-0.76 -1.99,-0.76 -1.02,0 -1.78,0.36 -2.29,1.06 -0.48,0.72 -0.74,1.83 -0.74,3.29l0 4.05z"/>
    <path class="fil1" d="M29.99 55.4c0,0.26 -0.06,0.46 -0.16,0.6 -0.12,0.14 -0.28,0.2 -0.5,0.2 -0.22,0 -0.38,-0.06 -0.5,-0.2 -0.12,-0.14 -0.18,-0.34 -0.18,-0.6l0 -11.67 -3.21 0c-0.26,0 -0.46,-0.06 -0.6,-0.16 -0.14,-0.1 -0.2,-0.26 -0.2,-0.46 0,-0.2 0.06,-0.36 0.2,-0.46 0.14,-0.1 0.34,-0.16 0.6,-0.16l7.76 0c0.26,0 0.46,0.04 0.6,0.14 0.14,0.12 0.2,0.26 0.2,0.46 0,0.2 -0.06,0.36 -0.2,0.46 -0.14,0.1 -0.34,0.16 -0.6,0.16l-3.21 0 0 11.69z"/>
    <path class="fil1" d="M34.53 49.8l6.38 0c-0.04,-0.9 -0.35,-1.6 -0.93,-2.14 -0.56,-0.52 -1.32,-0.78 -2.26,-0.78 -0.92,0 -1.67,0.26 -2.25,0.78 -0.58,0.54 -0.88,1.24 -0.94,2.14zm6.7 5.16c0.26,0 0.46,0.04 0.6,0.14 0.14,0.1 0.2,0.24 0.2,0.42 0,0.2 -0.06,0.34 -0.2,0.44 -0.14,0.08 -0.34,0.14 -0.6,0.14l-2.01 0c-1.02,0 -1.84,-0.08 -2.47,-0.2 -0.64,-0.14 -1.18,-0.36 -1.66,-0.68 -0.64,-0.42 -1.14,-1 -1.5,-1.77 -0.38,-0.76 -0.56,-1.6 -0.56,-2.5 0,-1.49 0.44,-2.71 1.34,-3.67 0.9,-0.96 2.04,-1.45 3.43,-1.45 1.24,0 2.28,0.41 3.15,1.23 0.86,0.8 1.28,1.78 1.28,2.93l0 0.38c0,0.16 -0.06,0.3 -0.16,0.38 -0.1,0.1 -0.24,0.14 -0.44,0.14l-7.22 0 0 0.06c0,1.44 0.36,2.46 1.08,3.09 0.7,0.62 1.93,0.92 3.63,0.92l2.11 0zm10.12 -8.94c0.28,0 0.48,0.04 0.6,0.14 0.14,0.08 0.2,0.22 0.2,0.42 0,0.18 -0.06,0.32 -0.2,0.42 -0.14,0.1 -0.34,0.16 -0.6,0.16l-2.72 0c-1.13,0 -2.01,0.28 -2.65,0.86 -0.64,0.56 -0.96,1.34 -0.96,2.35 0,1.36 0.48,2.46 1.46,3.3 0.98,0.85 2.29,1.27 3.95,1.27l1.34 0c0.26,0 0.46,0.06 0.61,0.16 0.14,0.1 0.22,0.24 0.22,0.42 0,0.2 -0.06,0.34 -0.2,0.44 -0.15,0.08 -0.37,0.14 -0.63,0.14l-1.1 0c-0.94,0 -1.64,-0.04 -2.14,-0.12 -0.53,-0.1 -0.99,-0.24 -1.43,-0.42 -1.04,-0.44 -1.86,-1.14 -2.5,-2.11 -0.63,-0.94 -0.95,-1.98 -0.95,-3.08 0,-1.37 0.42,-2.43 1.25,-3.21 0.84,-0.76 2,-1.14 3.46,-1.14l2.99 0zm4.23 9.36c0,0.26 -0.06,0.46 -0.16,0.58 -0.1,0.14 -0.26,0.2 -0.46,0.2 -0.2,0 -0.36,-0.06 -0.48,-0.2 -0.1,-0.14 -0.16,-0.32 -0.16,-0.58l0 -12.11c0,-0.24 0.06,-0.44 0.16,-0.58 0.12,-0.14 0.28,-0.2 0.48,-0.2 0.2,0 0.36,0.06 0.46,0.2 0.1,0.14 0.16,0.32 0.16,0.58l0 4.19c0.44,-0.56 0.93,-0.96 1.45,-1.22 0.52,-0.26 1.12,-0.39 1.8,-0.39 1.18,0 2.07,0.35 2.69,1.03 0.62,0.66 0.92,1.66 0.92,2.95l0 5.55c0,0.26 -0.06,0.46 -0.16,0.58 -0.1,0.14 -0.26,0.2 -0.46,0.2 -0.2,0 -0.36,-0.06 -0.46,-0.2 -0.1,-0.12 -0.16,-0.32 -0.16,-0.58l0 -4.99c0,-1.25 -0.2,-2.13 -0.6,-2.65 -0.4,-0.5 -1.07,-0.76 -1.99,-0.76 -1.02,0 -1.78,0.36 -2.28,1.06 -0.49,0.72 -0.75,1.83 -0.75,3.29l0 4.05z"/>
   </g>
   <g>
    <path class="fil1" d="M6.96 63.84c0,0.25 0.2,0.45 0.44,0.45l1.47 0c0.91,0 1.51,-0.37 1.51,-1.11l0 -0.01c0,-0.54 -0.29,-0.81 -0.75,-0.99 0.28,-0.16 0.53,-0.41 0.53,-0.86l0 -0.01c0,-0.28 -0.1,-0.5 -0.28,-0.69 -0.23,-0.23 -0.59,-0.35 -1.05,-0.35l-1.43 0c-0.24,0 -0.44,0.19 -0.44,0.44l0 3.13zm0.86 -1.95l0 -0.85 0.88 0c0.37,0 0.58,0.15 0.58,0.42l0 0.01c0,0.3 -0.25,0.42 -0.64,0.42l-0.82 0zm0 1.62l0 -0.88 1.03 0c0.45,0 0.65,0.16 0.65,0.43l0 0.02c0,0.29 -0.23,0.43 -0.63,0.43l-1.05 0z"/>
    <path id="_1" class="fil1" d="M11.65 63.91c0,0.23 0.18,0.41 0.41,0.41 0.18,0 0.33,-0.1 0.41,-0.27l0.28 -0.66 1.77 0 0.27 0.63c0.08,0.18 0.22,0.3 0.42,0.3 0.24,0 0.42,-0.19 0.42,-0.42 0,-0.06 -0.01,-0.12 -0.04,-0.18l-1.4 -3.17c-0.1,-0.22 -0.27,-0.35 -0.52,-0.35l-0.05 0c-0.24,0 -0.42,0.13 -0.51,0.35l-1.41 3.17c-0.02,0.06 -0.05,0.12 -0.05,0.19zm1.43 -1.31l0.55 -1.32 0.56 1.32 -1.11 0z"/>
    <path id="_2" class="fil1" d="M18.89 64.36c0.64,0 1.07,-0.19 1.43,-0.51 0.08,-0.07 0.15,-0.18 0.15,-0.32 0,-0.22 -0.19,-0.4 -0.42,-0.4 -0.1,0 -0.19,0.04 -0.26,0.09 -0.25,0.21 -0.5,0.32 -0.87,0.32 -0.69,0 -1.17,-0.57 -1.17,-1.26l0 -0.01c0,-0.69 0.49,-1.26 1.17,-1.26 0.31,0 0.57,0.11 0.82,0.29 0.06,0.04 0.14,0.09 0.26,0.09 0.24,0 0.44,-0.19 0.44,-0.43 0,-0.16 -0.08,-0.29 -0.17,-0.36 -0.34,-0.24 -0.74,-0.4 -1.35,-0.4 -1.23,0 -2.09,0.93 -2.09,2.08l0 0.01c0,1.15 0.87,2.07 2.06,2.07z"/>
    <path id="_3" class="fil1" d="M22.06 63.88c0,0.25 0.2,0.44 0.44,0.44 0.25,0 0.45,-0.19 0.45,-0.44l0 -0.8 0.5 -0.48 1.15 1.51c0.1,0.13 0.2,0.21 0.38,0.21 0.25,0 0.44,-0.18 0.44,-0.43 0,-0.13 -0.05,-0.22 -0.12,-0.31l-1.23 -1.55 1.13 -1.06c0.1,-0.09 0.16,-0.19 0.16,-0.33 0,-0.22 -0.16,-0.41 -0.41,-0.41 -0.15,0 -0.26,0.06 -0.37,0.17l-1.63 1.62 0 -1.35c0,-0.24 -0.2,-0.44 -0.45,-0.44 -0.24,0 -0.44,0.2 -0.44,0.44l0 3.21z"/>
    <path class="fil0" d="M31.12 64.36c1.24,0 2.14,-0.94 2.14,-2.08l0 -0.01c0,-1.15 -0.89,-2.07 -2.13,-2.07 -1.24,0 -2.14,0.93 -2.14,2.08l0 0.01c0,1.14 0.89,2.07 2.13,2.07zm0.01 -0.82c-0.71,0 -1.22,-0.57 -1.22,-1.26l0 -0.01c0,-0.69 0.5,-1.26 1.21,-1.26 0.71,0 1.22,0.58 1.22,1.27l0 0.01c0,0.69 -0.5,1.25 -1.21,1.25z"/>
    <path id="_1_0" class="fil0" d="M34.98 63.88c0,0.25 0.19,0.44 0.44,0.44 0.24,0 0.44,-0.19 0.44,-0.44l0 -1.15 1.55 0c0.23,0 0.4,-0.18 0.4,-0.4 0,-0.23 -0.17,-0.4 -0.4,-0.4l-1.55 0 0 -0.86 1.81 0c0.22,0 0.4,-0.18 0.4,-0.4 0,-0.23 -0.18,-0.4 -0.4,-0.4l-2.25 0c-0.25,0 -0.44,0.19 -0.44,0.44l0 3.17z"/>
    <path id="_2_1" class="fil0" d="M39.67 63.88c0,0.25 0.19,0.44 0.44,0.44 0.25,0 0.44,-0.19 0.44,-0.44l0 -1.15 1.56 0c0.22,0 0.4,-0.18 0.4,-0.4 0,-0.23 -0.18,-0.4 -0.4,-0.4l-1.56 0 0 -0.86 1.81 0c0.23,0 0.41,-0.18 0.41,-0.4 0,-0.23 -0.18,-0.4 -0.41,-0.4l-2.25 0c-0.25,0 -0.44,0.19 -0.44,0.44l0 3.17z"/>
    <path id="_3_2" class="fil0" d="M44.4 63.88c0,0.25 0.2,0.44 0.45,0.44 0.24,0 0.44,-0.19 0.44,-0.44l0 -3.21c0,-0.24 -0.2,-0.44 -0.44,-0.44 -0.25,0 -0.45,0.2 -0.45,0.44l0 3.21z"/>
    <path id="_4" class="fil0" d="M49.1 64.36c0.65,0 1.07,-0.19 1.43,-0.51 0.08,-0.07 0.15,-0.18 0.15,-0.32 0,-0.22 -0.19,-0.4 -0.41,-0.4 -0.1,0 -0.2,0.04 -0.27,0.09 -0.25,0.21 -0.5,0.32 -0.87,0.32 -0.69,0 -1.16,-0.57 -1.16,-1.26l0 -0.01c0,-0.69 0.48,-1.26 1.16,-1.26 0.32,0 0.58,0.11 0.82,0.29 0.07,0.04 0.15,0.09 0.27,0.09 0.24,0 0.43,-0.19 0.43,-0.43 0,-0.16 -0.08,-0.29 -0.17,-0.36 -0.33,-0.24 -0.74,-0.4 -1.34,-0.4 -1.24,0 -2.1,0.93 -2.1,2.08l0 0.01c0,1.15 0.88,2.07 2.06,2.07z"/>
    <path id="_5" class="fil0" d="M52.83 64.29l2.25 0c0.22,0 0.4,-0.18 0.4,-0.39 0,-0.22 -0.18,-0.4 -0.4,-0.4l-1.82 0 0 -0.84 1.54 0c0.21,0 0.39,-0.18 0.39,-0.39 0,-0.22 -0.18,-0.4 -0.39,-0.4l-1.54 0 0 -0.82 1.79 0c0.22,0 0.4,-0.17 0.4,-0.39 0,-0.22 -0.18,-0.39 -0.4,-0.39l-2.22 0c-0.25,0 -0.45,0.19 -0.45,0.44l0 3.13c0,0.25 0.2,0.45 0.45,0.45z"/>
   </g>
  </g>
  <g id="_1802184256640">
   <path class="fil2" d="M32.65 0c2.93,0.49 5.96,1.17 8.37,2.98 3.53,4.36 2.88,10.61 0.83,15.47 -0.42,-1.62 -0.81,-3.26 -1.22,-4.88 -1.42,0.34 -2.83,0.67 -4.25,1.02 1.15,-3.35 2.01,-7.14 0.5,-10.52 -0.75,-1.9 -2.39,-3.26 -4.23,-4.07zm-16.78 8.84c1.68,-3.54 5.1,-6.05 8.67,-7.51 2.7,-1.07 5.76,0.62 6.69,3.28 1.33,3.89 -0.13,8.1 -2.25,11.42 -0.32,-1.74 -0.62,-3.48 -0.93,-5.22 -1.23,0.2 -2.46,0.39 -3.69,0.61 0.67,-1.88 1.22,-4.49 -0.64,-5.86 -2.04,-1.31 -4.39,0.18 -5.94,1.56 0.43,0.15 0.87,0.31 1.3,0.46 -1.06,0.43 -2.12,0.87 -3.21,1.26zm30.38 -1c4.37,6.38 4.18,15.42 -0.59,21.54 0.12,-1.45 0.27,-2.9 0.42,-4.35l-3.15 0.76c3.23,-5.28 5.55,-11.84 3.32,-17.95z"/>
   <path class="fil3" d="M14.06 12.16c0.5,-1.06 0.67,-2.68 2.11,-2.83 -0.58,1.87 -1.31,4.41 0.42,5.92 1.74,1.41 4.03,0.27 5.57,-0.88 -0.45,-0.33 -0.91,-0.65 -1.35,-0.97 2.03,-0.32 4.07,-0.64 6.1,-0.97 0.44,2.45 0.87,4.91 1.3,7.36 -0.39,-0.44 -0.78,-0.88 -1.16,-1.32 -2.02,2.02 -4.5,3.74 -7.36,4.21 -2.39,0.45 -5.24,-0.62 -6.18,-2.99 -0.99,-2.43 -0.18,-5.14 0.55,-7.53zm19.11 4.53l6.32 -1.51c0.66,2.65 1.31,5.29 1.97,7.93 -0.43,-0.39 -0.86,-0.78 -1.29,-1.18 -2.74,4.5 -6.73,8.38 -11.69,10.32 -2.69,1.04 -5.83,1.33 -8.55,0.24 -2.37,-1.73 -4.01,-4.23 -5.41,-6.77 2.33,2.62 6.26,3.24 9.44,1.95 4.69,-1.85 8.39,-5.64 10.93,-9.91 -0.57,-0.36 -1.15,-0.71 -1.72,-1.07zm5.54 11.46c2.08,-0.51 4.15,-1.01 6.23,-1.51 -0.19,1.35 -0.15,2.75 -0.52,4.06 -2.93,3.31 -7.25,5.28 -11.63,5.67 -2.24,0.23 -4.47,-0.16 -6.67,-0.53 5.52,0.21 10.44,-2.93 14.13,-6.78 -0.52,-0.3 -1.03,-0.61 -1.54,-0.91z"/>
  </g>
 </g>
</svg>
