<?xml version="1.0" encoding="UTF-8"?>
<!DOCTYPE svg PUBLIC "-//W3C//DTD SVG 1.1//EN" "http://www.w3.org/Graphics/SVG/1.1/DTD/svg11.dtd">
<!-- Creator: CorelDRAW -->
<svg xmlns="http://www.w3.org/2000/svg" xml:space="preserve" width="1160px" height="1163px" version="1.1" style="shape-rendering:geometricPrecision; text-rendering:geometricPrecision; image-rendering:optimizeQuality; fill-rule:evenodd; clip-rule:evenodd"
viewBox="0 0 124.08 124.43"
 xmlns:xlink="http://www.w3.org/1999/xlink"
 xmlns:xodm="http://www.corel.com/coreldraw/odm/2003">
 <defs>
  <style type="text/css">
   <![CDATA[
    .fil1 {fill:#001C4A;fill-rule:nonzero}
    .fil0 {fill:#55BD00;fill-rule:nonzero}
   ]]>
  </style>
 </defs>
 <g id="Layer_x0020_1">
  <metadata id="CorelCorpID_0Corel-Layer"/>
  <g id="_1802577659840">
   <path class="fil0" d="M66.94 0c9.97,1.68 20.34,4.01 28.58,10.18 12.05,14.88 9.82,36.21 2.8,52.83 -1.41,-5.56 -2.74,-11.12 -4.14,-16.68 -4.84,1.16 -9.67,2.31 -14.51,3.48 3.91,-11.42 6.86,-24.38 1.71,-35.9 -2.57,-6.5 -8.18,-11.15 -14.44,-13.91zm-57.32 30.18c5.74,-12.1 17.43,-20.66 29.6,-25.64 9.23,-3.65 19.69,2.13 22.86,11.2 4.53,13.28 -0.44,27.65 -7.67,39 -1.12,-5.93 -2.14,-11.88 -3.2,-17.82 -4.21,0.68 -8.41,1.34 -12.6,2.07 2.29,-6.4 4.17,-15.33 -2.18,-20.02 -6.96,-4.47 -14.98,0.64 -20.3,5.33 1.49,0.54 2.97,1.06 4.46,1.58 -3.64,1.48 -7.26,2.98 -10.97,4.3zm103.76 -3.41c14.92,21.79 14.25,52.67 -2.04,73.56 0.42,-4.94 0.94,-9.9 1.46,-14.85l-10.78 2.59c11.04,-18.04 18.94,-40.43 11.36,-61.3z"/>
   <path class="fil1" d="M3.46 41.51c1.67,-3.61 2.28,-9.15 7.2,-9.67 -2.01,6.39 -4.49,15.07 1.41,20.24 5.96,4.8 13.76,0.91 19.03,-3.01 -1.55,-1.12 -3.09,-2.22 -4.62,-3.33 6.95,-1.08 13.9,-2.18 20.85,-3.3 1.48,8.38 2.96,16.77 4.43,25.14 -1.32,-1.5 -2.65,-3 -3.97,-4.5 -6.88,6.9 -15.34,12.77 -25.14,14.36 -8.13,1.53 -17.87,-2.1 -21.08,-10.19 -3.39,-8.33 -0.61,-17.56 1.89,-25.74zm65.23 15.5l21.6 -5.17c2.23,9.03 4.47,18.06 6.71,27.08 -1.47,-1.35 -2.94,-2.69 -4.39,-4.04 -9.36,15.37 -23,28.61 -39.91,35.25 -9.22,3.55 -19.91,4.53 -29.22,0.8 -8.09,-5.89 -13.7,-14.43 -18.48,-23.09 7.99,8.94 21.38,11.03 32.26,6.65 15.99,-6.3 28.64,-19.25 37.31,-33.83 -1.96,-1.23 -3.92,-2.43 -5.88,-3.65zm18.94 39.1c7.08,-1.72 14.17,-3.43 21.25,-5.13 -0.63,4.61 -0.49,9.36 -1.75,13.86 -10.03,11.29 -24.77,18.01 -39.72,19.36 -7.64,0.77 -15.27,-0.55 -22.79,-1.81 18.84,0.71 35.66,-10.01 48.24,-23.14 -1.75,-1.04 -3.49,-2.1 -5.23,-3.14z"/>
  </g>
 </g>
</svg>
