<?xml version="1.0" encoding="UTF-8"?>
<!DOCTYPE svg PUBLIC "-//W3C//DTD SVG 1.1//EN" "http://www.w3.org/Graphics/SVG/1.1/DTD/svg11.dtd">
<!-- Creator: CorelDRAW -->
<svg xmlns="http://www.w3.org/2000/svg" xml:space="preserve" width="342px" height="100px" version="1.1" style="shape-rendering:geometricPrecision; text-rendering:geometricPrecision; image-rendering:optimizeQuality; fill-rule:evenodd; clip-rule:evenodd"
viewBox="0 0 372.89 108.97"
 xmlns:xlink="http://www.w3.org/1999/xlink"
 xmlns:xodm="http://www.corel.com/coreldraw/odm/2003">
 <defs>
  <style type="text/css">
   <![CDATA[
    .fil2 {fill:#55BD00;fill-rule:nonzero}
    .fil0 {fill:#55BD00;fill-rule:nonzero}
    .fil3 {fill:#DEDEDE;fill-rule:nonzero}
    .fil1 {fill:#DEDEDE;fill-rule:nonzero}
   ]]>
  </style>
 </defs>
 <g id="Layer_x0020_1">
  <metadata id="CorelCorpID_0Corel-Layer"/>
  <g id="_1801388845296">
   <path class="fil0" d="M128.48 95.51c0,1.06 0.84,1.9 1.9,1.9l6.32 0c3.89,0 6.46,-1.58 6.46,-4.74l0 -0.05c0,-2.32 -1.23,-3.48 -3.23,-4.24 1.23,-0.7 2.27,-1.78 2.27,-3.73l0 -0.05c0,-1.18 -0.4,-2.15 -1.19,-2.94 -0.98,-0.98 -2.54,-1.53 -4.51,-1.53l-6.12 0c-1.06,0 -1.9,0.84 -1.9,1.9l0 13.48zm3.7 -8.39l0 -3.66 3.75 0c1.6,0 2.49,0.65 2.49,1.78l0 0.05c0,1.28 -1.06,1.83 -2.74,1.83l-3.5 0zm0 6.95l0 -3.79 4.39 0c1.95,0 2.82,0.71 2.82,1.87l0 0.05c0,1.28 -1.02,1.87 -2.69,1.87l-4.52 0z"/>
   <path id="_1" class="fil0" d="M148.63 95.78c0,0.98 0.76,1.77 1.75,1.77 0.79,0 1.43,-0.44 1.75,-1.18l1.21 -2.84 7.6 0 1.16 2.72c0.35,0.79 0.94,1.3 1.83,1.3 1.01,0 1.8,-0.81 1.8,-1.82 0,-0.25 -0.08,-0.5 -0.2,-0.77l-6.02 -13.59c-0.42,-0.94 -1.16,-1.51 -2.2,-1.51l-0.22 0c-1.04,0 -1.8,0.57 -2.22,1.51l-6.02 13.59c-0.12,0.27 -0.22,0.55 -0.22,0.82zm6.12 -5.6l2.39 -5.7 2.39 5.7 -4.78 0z"/>
   <path id="_2" class="fil0" d="M179.71 97.7c2.76,0 4.59,-0.81 6.14,-2.17 0.35,-0.3 0.64,-0.76 0.64,-1.36 0,-0.96 -0.81,-1.75 -1.77,-1.75 -0.45,0 -0.84,0.17 -1.14,0.42 -1.08,0.86 -2.15,1.36 -3.75,1.36 -2.96,0 -5.01,-2.47 -5.01,-5.43l0 -0.05c0,-2.96 2.1,-5.38 5.01,-5.38 1.36,0 2.47,0.45 3.53,1.24 0.27,0.17 0.62,0.37 1.13,0.37 1.04,0 1.88,-0.82 1.88,-1.86 0,-0.66 -0.35,-1.2 -0.74,-1.5 -1.43,-1.06 -3.18,-1.75 -5.77,-1.75 -5.31,0 -9.01,4.02 -9.01,8.93l0 0.05c0,4.96 3.77,8.88 8.86,8.88z"/>
   <path id="_3" class="fil0" d="M193.34 95.65c0,1.07 0.84,1.9 1.9,1.9 1.06,0 1.9,-0.83 1.9,-1.9l0 -3.45 2.17 -2.02 4.94 6.46c0.42,0.54 0.86,0.91 1.6,0.91 1.11,0 1.93,-0.79 1.93,-1.85 0,-0.56 -0.23,-0.96 -0.52,-1.33l-5.31 -6.66 4.86 -4.54c0.42,-0.4 0.69,-0.84 0.69,-1.43 0,-0.94 -0.69,-1.75 -1.75,-1.75 -0.66,0 -1.13,0.27 -1.6,0.74l-7.01 6.95 0 -5.79c0,-1.07 -0.84,-1.9 -1.9,-1.9 -1.06,0 -1.9,0.83 -1.9,1.9l0 13.76z"/>
   <path class="fil1" d="M232.25 97.7c5.33,0 9.2,-4.02 9.2,-8.93l0 -0.05c0,-4.91 -3.82,-8.88 -9.15,-8.88 -5.33,0 -9.21,4.02 -9.21,8.93l0 0.05c0,4.91 3.83,8.88 9.16,8.88zm0.05 -3.5c-3.06,0 -5.23,-2.47 -5.23,-5.43l0 -0.05c0,-2.96 2.12,-5.38 5.18,-5.38 3.06,0 5.23,2.47 5.23,5.43l0 0.05c0,2.96 -2.12,5.38 -5.18,5.38z"/>
   <path id="_1_9" class="fil1" d="M248.81 95.65c0,1.07 0.84,1.9 1.9,1.9 1.06,0 1.9,-0.83 1.9,-1.9l0 -4.93 6.66 0c0.96,0 1.73,-0.77 1.73,-1.73 0,-0.96 -0.77,-1.73 -1.73,-1.73l-6.66 0 0 -3.67 7.77 0c0.96,0 1.73,-0.77 1.73,-1.73 0,-0.96 -0.77,-1.73 -1.73,-1.73l-9.67 0c-1.06,0 -1.9,0.84 -1.9,1.9l0 13.62z"/>
   <path id="_2_10" class="fil1" d="M268.97 95.65c0,1.07 0.84,1.9 1.9,1.9 1.06,0 1.9,-0.83 1.9,-1.9l0 -4.93 6.66 0c0.96,0 1.73,-0.77 1.73,-1.73 0,-0.96 -0.77,-1.73 -1.73,-1.73l-6.66 0 0 -3.67 7.77 0c0.96,0 1.73,-0.77 1.73,-1.73 0,-0.96 -0.77,-1.73 -1.73,-1.73l-9.67 0c-1.06,0 -1.9,0.84 -1.9,1.9l0 13.62z"/>
   <path id="_3_11" class="fil1" d="M289.3 95.65c0,1.07 0.84,1.9 1.9,1.9 1.06,0 1.9,-0.83 1.9,-1.9l0 -13.76c0,-1.07 -0.84,-1.9 -1.9,-1.9 -1.06,0 -1.9,0.83 -1.9,1.9l0 13.76z"/>
   <path id="_4" class="fil1" d="M309.49 97.7c2.76,0 4.59,-0.81 6.14,-2.17 0.35,-0.3 0.64,-0.76 0.64,-1.36 0,-0.96 -0.81,-1.75 -1.78,-1.75 -0.44,0 -0.83,0.17 -1.13,0.42 -1.09,0.86 -2.15,1.36 -3.75,1.36 -2.96,0 -5.01,-2.47 -5.01,-5.43l0 -0.05c0,-2.96 2.1,-5.38 5.01,-5.38 1.36,0 2.47,0.45 3.53,1.24 0.27,0.17 0.61,0.37 1.13,0.37 1.04,0 1.88,-0.82 1.88,-1.86 0,-0.66 -0.35,-1.2 -0.74,-1.5 -1.43,-1.06 -3.19,-1.75 -5.78,-1.75 -5.3,0 -9,4.02 -9,8.93l0 0.05c0,4.96 3.77,8.88 8.86,8.88z"/>
   <path id="_5" class="fil1" d="M325.48 97.41l9.69 0c0.94,0 1.71,-0.74 1.71,-1.68 0,-0.94 -0.77,-1.7 -1.71,-1.7l-7.82 0 0 -3.63 6.59 0c0.94,0 1.7,-0.74 1.7,-1.68 0,-0.94 -0.76,-1.7 -1.7,-1.7l-6.59 0 0 -3.51 7.7 0c0.94,0 1.7,-0.74 1.7,-1.67 0,-0.94 -0.76,-1.71 -1.7,-1.71l-9.57 0c-1.06,0 -1.9,0.84 -1.9,1.9l0 13.48c0,1.06 0.84,1.9 1.9,1.9z"/>
   <path class="fil1" d="M133.74 62.12c0,1.02 -0.24,1.81 -0.63,2.36 -0.47,0.55 -1.1,0.78 -1.96,0.78 -0.87,0 -1.57,-0.23 -1.96,-0.78 -0.48,-0.55 -0.71,-1.34 -0.71,-2.36l0 -47.79c0,-1.02 0.23,-1.73 0.71,-2.28 0.39,-0.55 1.09,-0.79 1.96,-0.79 0.86,0 1.49,0.24 1.96,0.79 0.39,0.47 0.63,1.26 0.63,2.28l0 47.79zm16.17 -0.07c0,1.02 -0.24,1.8 -0.63,2.27 -0.39,0.55 -1.02,0.79 -1.81,0.79 -0.78,0 -1.41,-0.24 -1.88,-0.79 -0.39,-0.55 -0.63,-1.25 -0.63,-2.27l0 -33.83c0,-1.02 0.24,-1.81 0.71,-2.36 0.39,-0.55 1.02,-0.78 1.8,-0.78 0.79,0 1.42,0.23 1.81,0.78 0.39,0.55 0.63,1.34 0.63,2.36l0 2.82c1.72,-2.19 3.61,-3.76 5.65,-4.78 2.04,-1.03 4.39,-1.5 7.06,-1.5 4.63,0 8.08,1.34 10.52,4.01 2.43,2.59 3.61,6.51 3.61,11.53l0 21.75c0,1.02 -0.24,1.8 -0.63,2.27 -0.39,0.55 -1.02,0.79 -1.8,0.79 -0.79,0 -1.42,-0.24 -1.81,-0.79 -0.39,-0.47 -0.63,-1.25 -0.63,-2.27l0 -19.55c0,-4.86 -0.78,-8.32 -2.35,-10.36 -1.57,-1.96 -4.16,-2.98 -7.77,-2.98 -4.01,0 -6.99,1.41 -8.95,4.16 -1.88,2.82 -2.9,7.14 -2.9,12.87l0 15.86zm42.54 0c0,1.02 -0.24,1.8 -0.63,2.27 -0.39,0.55 -1.02,0.79 -1.81,0.79 -0.78,0 -1.41,-0.24 -1.88,-0.79 -0.39,-0.55 -0.63,-1.25 -0.63,-2.27l0 -33.83c0,-1.02 0.24,-1.81 0.71,-2.36 0.39,-0.55 1.02,-0.78 1.8,-0.78 0.79,0 1.42,0.23 1.81,0.78 0.39,0.55 0.63,1.34 0.63,2.36l0 2.82c1.72,-2.19 3.61,-3.76 5.65,-4.78 2.04,-1.03 4.39,-1.5 7.06,-1.5 4.63,0 8.08,1.34 10.52,4.01 2.43,2.59 3.61,6.51 3.61,11.53l0 21.75c0,1.02 -0.24,1.8 -0.63,2.27 -0.39,0.55 -1.02,0.79 -1.81,0.79 -0.78,0 -1.41,-0.24 -1.8,-0.79 -0.39,-0.47 -0.63,-1.25 -0.63,-2.27l0 -19.55c0,-4.86 -0.78,-8.32 -2.35,-10.36 -1.57,-1.96 -4.16,-2.98 -7.77,-2.98 -4.01,0 -6.99,1.41 -8.95,4.16 -1.88,2.82 -2.9,7.14 -2.9,12.87l0 15.86z"/>
   <path class="fil0" d="M245.88 62.12c0,1.02 -0.23,1.81 -0.63,2.36 -0.47,0.55 -1.09,0.78 -1.96,0.78 -0.86,0 -1.49,-0.23 -1.96,-0.78 -0.47,-0.55 -0.71,-1.34 -0.71,-2.36l0 -45.68 -12.55 0c-1.02,0 -1.81,-0.23 -2.36,-0.62 -0.55,-0.4 -0.78,-1.02 -0.78,-1.81 0,-0.78 0.23,-1.41 0.78,-1.8 0.55,-0.4 1.34,-0.63 2.36,-0.63l30.37 0c1.02,0 1.8,0.16 2.35,0.55 0.55,0.47 0.79,1.02 0.79,1.8 0,0.79 -0.24,1.42 -0.79,1.81 -0.55,0.39 -1.33,0.63 -2.35,0.63l-12.56 0 0 45.75z"/>
   <path class="fil0" d="M263.63 40.23l24.96 0c-0.16,-3.54 -1.33,-6.28 -3.61,-8.4 -2.2,-2.04 -5.18,-3.06 -8.87,-3.06 -3.61,0 -6.51,1.02 -8.79,3.06 -2.27,2.12 -3.45,4.86 -3.69,8.4zm26.22 20.17c1.02,0 1.8,0.15 2.35,0.55 0.55,0.39 0.79,0.94 0.79,1.64 0,0.79 -0.24,1.34 -0.79,1.73 -0.55,0.32 -1.33,0.55 -2.35,0.55l-7.85 0c-4,0 -7.22,-0.31 -9.66,-0.78 -2.51,-0.55 -4.63,-1.42 -6.51,-2.67 -2.51,-1.65 -4.47,-3.93 -5.89,-6.91 -1.49,-2.98 -2.19,-6.28 -2.19,-9.81 0,-5.81 1.72,-10.6 5.25,-14.36 3.54,-3.77 8.01,-5.65 13.43,-5.65 4.86,0 8.94,1.57 12.32,4.78 3.37,3.14 5.02,6.99 5.02,11.46l0 1.49c0,0.63 -0.23,1.18 -0.63,1.49 -0.39,0.4 -0.94,0.55 -1.72,0.55l-28.26 0 0 0.24c0,5.65 1.41,9.65 4.24,12.09 2.75,2.43 7.53,3.61 14.21,3.61l8.24 0zm39.63 -35.01c1.1,0 1.89,0.16 2.36,0.55 0.55,0.32 0.78,0.86 0.78,1.65 0,0.71 -0.23,1.26 -0.78,1.65 -0.55,0.39 -1.34,0.63 -2.36,0.63l-10.67 0c-4.4,0 -7.85,1.09 -10.36,3.37 -2.51,2.2 -3.77,5.26 -3.77,9.18 0,5.34 1.88,9.66 5.73,12.95 3.85,3.3 8.95,4.95 15.46,4.95l5.26 0c1.02,0 1.81,0.23 2.36,0.63 0.54,0.39 0.86,0.94 0.86,1.64 0,0.79 -0.24,1.34 -0.79,1.73 -0.55,0.32 -1.41,0.55 -2.43,0.55l-4.32 0c-3.68,0 -6.43,-0.16 -8.39,-0.47 -2.04,-0.39 -3.85,-0.94 -5.58,-1.65 -4.08,-1.73 -7.3,-4.47 -9.81,-8.24 -2.43,-3.69 -3.69,-7.77 -3.69,-12.09 0,-5.33 1.65,-9.49 4.87,-12.55 3.3,-2.99 7.85,-4.48 13.58,-4.48l11.69 0zm16.56 36.66c0,1.02 -0.23,1.8 -0.62,2.27 -0.4,0.55 -1.03,0.79 -1.81,0.79 -0.78,0 -1.41,-0.24 -1.88,-0.79 -0.4,-0.55 -0.63,-1.25 -0.63,-2.27l0 -47.41c0,-0.94 0.23,-1.73 0.63,-2.28 0.47,-0.55 1.1,-0.78 1.88,-0.78 0.78,0 1.41,0.23 1.81,0.78 0.39,0.55 0.62,1.26 0.62,2.28l0 16.4c1.73,-2.19 3.61,-3.76 5.65,-4.78 2.04,-1.03 4.4,-1.5 7.07,-1.5 4.63,0 8.08,1.34 10.51,4.01 2.44,2.59 3.62,6.51 3.62,11.53l0 21.75c0,1.02 -0.24,1.8 -0.63,2.27 -0.4,0.55 -1.02,0.79 -1.81,0.79 -0.78,0 -1.41,-0.24 -1.8,-0.79 -0.4,-0.47 -0.63,-1.25 -0.63,-2.27l0 -19.55c0,-4.86 -0.79,-8.32 -2.36,-10.36 -1.57,-1.96 -4.16,-2.98 -7.77,-2.98 -4,0 -6.98,1.41 -8.94,4.16 -1.89,2.82 -2.91,7.14 -2.91,12.87l0 15.86z"/>
   <path class="fil2" d="M58.62 0c8.73,1.47 17.81,3.51 25.02,8.92 10.56,13.03 8.61,31.71 2.46,46.26 -1.23,-4.87 -2.4,-9.74 -3.63,-14.6 -4.23,1.01 -8.46,2.01 -12.7,3.04 3.42,-10 6.01,-21.35 1.5,-31.44 -2.25,-5.69 -7.17,-9.76 -12.65,-12.18zm-50.2 26.43c5.03,-10.6 15.26,-18.1 25.93,-22.45 8.08,-3.2 17.23,1.86 20.02,9.8 3.96,11.64 -0.39,24.22 -6.73,34.15 -0.97,-5.18 -1.87,-10.4 -2.79,-15.6 -3.69,0.6 -7.37,1.17 -11.04,1.81 2,-5.6 3.66,-13.42 -1.91,-17.52 -6.1,-3.92 -13.12,0.55 -17.77,4.66 1.3,0.47 2.6,0.93 3.9,1.38 -3.19,1.3 -6.36,2.61 -9.61,3.77zm90.86 -2.99c13.07,19.09 12.49,46.13 -1.78,64.42 0.37,-4.33 0.82,-8.67 1.28,-13l-9.44 2.26c9.67,-15.79 16.59,-35.4 9.94,-53.68z"/>
   <path class="fil3" d="M3.03 36.35c1.46,-3.16 2,-8.01 6.3,-8.46 -1.75,5.59 -3.92,13.19 1.24,17.72 5.22,4.2 12.05,0.79 16.66,-2.64 -1.35,-0.98 -2.7,-1.94 -4.04,-2.91 6.08,-0.95 12.17,-1.92 18.25,-2.89 1.3,7.33 2.6,14.68 3.89,22.01 -1.16,-1.31 -2.33,-2.63 -3.48,-3.94 -6.02,6.05 -13.43,11.18 -22.01,12.57 -7.13,1.34 -15.66,-1.83 -18.47,-8.92 -2.96,-7.29 -0.53,-15.38 1.66,-22.54zm57.12 13.57l18.92 -4.52c1.95,7.9 3.91,15.81 5.87,23.71 -1.28,-1.18 -2.57,-2.35 -3.84,-3.53 -8.19,13.45 -20.14,25.05 -34.95,30.86 -8.07,3.11 -17.43,3.97 -25.59,0.7 -7.08,-5.16 -12,-12.63 -16.18,-20.21 6.99,7.82 18.72,9.66 28.25,5.82 14,-5.52 25.08,-16.86 32.67,-29.63 -1.72,-1.08 -3.43,-2.13 -5.15,-3.2zm16.59 34.25c6.2,-1.51 12.4,-3.01 18.61,-4.5 -0.55,4.04 -0.43,8.2 -1.54,12.14 -8.77,9.88 -21.68,15.77 -34.78,16.96 -6.69,0.67 -13.37,-0.49 -19.95,-1.59 16.5,0.62 31.23,-8.76 42.24,-20.27 -1.54,-0.91 -3.06,-1.83 -4.58,-2.74z"/>
  </g>
 </g>
</svg>
